# Blender 4.5.4 LTS
# www.blender.org
mtllib Figures.mtl
o Tank
v -1.983756 1.000000 1.000000
v -1.983756 1.000000 -1.000000
v 1.983756 1.000000 1.000000
v 1.983756 1.000000 -1.000000
v -1.983756 0.000000 1.000000
v -1.983756 0.000000 -1.000000
v 1.983756 0.000000 -1.000000
v 1.983756 0.000000 1.000000
v -1.487817 1.500000 0.750000
v -1.487817 1.500000 -0.750000
v 1.487817 1.500000 0.750000
v 1.487817 1.500000 -0.750000
v -1.487817 1.000000 0.750000
v -1.487817 1.000000 -0.750000
v 1.487817 1.000000 -0.750000
v 1.487817 1.000000 0.750000
v 0.706498 2.000000 0.500000
v 0.706498 2.000000 -0.500000
v 2.293502 2.000000 0.500000
v 2.293502 2.000000 -0.500000
v 0.706498 1.500000 0.500000
v 0.706498 1.500000 -0.500000
v 2.293502 1.500000 -0.500000
v 2.293502 1.500000 0.500000
v -2.293502 2.000000 0.500000
v -2.293502 2.000000 -0.500000
v -0.706498 2.000000 0.500000
v -0.706498 2.000000 -0.500000
v -2.293502 1.500000 0.500000
v -2.293502 1.500000 -0.500000
v -0.706498 1.500000 -0.500000
v -0.706498 1.500000 0.500000
v 1.400812 1.842890 1.500000
v 1.400812 1.842890 0.500000
v 1.599188 1.842890 1.500000
v 1.599188 1.842890 0.500000
v 1.400812 1.692890 1.500000
v 1.400812 1.692890 0.500000
v 1.599188 1.692890 0.500000
v 1.599188 1.692890 1.500000
v -1.599188 1.850000 1.500000
v -1.599188 1.850000 0.500000
v -1.400812 1.850000 1.500000
v -1.400812 1.850000 0.500000
v -1.599188 1.700000 1.500000
v -1.599188 1.700000 0.500000
v -1.400812 1.700000 0.500000
v -1.400812 1.700000 1.500000
v 1.400812 2.750000 0.100000
v 1.400812 2.750000 -0.100000
v 1.599188 2.750000 0.100000
v 1.599188 2.750000 -0.100000
v 1.400812 2.000000 0.100000
v 1.400812 2.000000 -0.100000
v 1.599188 2.000000 -0.100000
v 1.599188 2.000000 0.100000
v -1.599188 2.750000 0.100000
v -1.599188 2.750000 -0.100000
v -1.400812 2.750000 0.100000
v -1.400812 2.750000 -0.100000
v -1.599188 2.000000 0.100000
v -1.599188 2.000000 -0.100000
v -1.400812 2.000000 -0.100000
v -1.400812 2.000000 0.100000
vn -1.0000 -0.0000 -0.0000
vn -0.0000 -0.0000 -1.0000
vn 1.0000 -0.0000 -0.0000
vn -0.0000 -0.0000 1.0000
vn -0.0000 1.0000 -0.0000
vn -0.0000 -1.0000 -0.0000
vt 0.500000 0.000000
vt 0.625000 0.000000
vt 0.625000 0.250000
vt 0.500000 0.250000
vt 0.625000 0.500000
vt 0.500000 0.500000
vt 0.625000 0.750000
vt 0.500000 0.750000
vt 0.625000 1.000000
vt 0.500000 1.000000
vt 0.875000 0.500000
vt 0.875000 0.750000
s 0
f 5/1/1 1/2/1 2/3/1 6/4/1
f 6/4/2 2/3/2 4/5/2 7/6/2
f 7/6/3 4/5/3 3/7/3 8/8/3
f 8/8/4 3/7/4 1/9/4 5/10/4
f 4/5/5 2/11/5 1/12/5 3/7/5
f 8/8/6 5/1/6 6/4/6 7/6/6
f 13/1/1 9/2/1 10/3/1 14/4/1
f 14/4/2 10/3/2 12/5/2 15/6/2
f 15/6/3 12/5/3 11/7/3 16/8/3
f 16/8/4 11/7/4 9/9/4 13/10/4
f 12/5/5 10/11/5 9/12/5 11/7/5
f 16/8/6 13/1/6 14/4/6 15/6/6
f 21/1/1 17/2/1 18/3/1 22/4/1
f 22/4/2 18/3/2 20/5/2 23/6/2
f 23/6/3 20/5/3 19/7/3 24/8/3
f 24/8/4 19/7/4 17/9/4 21/10/4
f 20/5/5 18/11/5 17/12/5 19/7/5
f 24/8/6 21/1/6 22/4/6 23/6/6
f 29/1/1 25/2/1 26/3/1 30/4/1
f 30/4/2 26/3/2 28/5/2 31/6/2
f 31/6/3 28/5/3 27/7/3 32/8/3
f 32/8/4 27/7/4 25/9/4 29/10/4
f 28/5/5 26/11/5 25/12/5 27/7/5
f 32/8/6 29/1/6 30/4/6 31/6/6
f 37/1/1 33/2/1 34/3/1 38/4/1
f 38/4/2 34/3/2 36/5/2 39/6/2
f 39/6/3 36/5/3 35/7/3 40/8/3
f 40/8/4 35/7/4 33/9/4 37/10/4
f 36/5/5 34/11/5 33/12/5 35/7/5
f 40/8/6 37/1/6 38/4/6 39/6/6
f 45/1/1 41/2/1 42/3/1 46/4/1
f 46/4/2 42/3/2 44/5/2 47/6/2
f 47/6/3 44/5/3 43/7/3 48/8/3
f 48/8/4 43/7/4 41/9/4 45/10/4
f 44/5/5 42/11/5 41/12/5 43/7/5
f 48/8/6 45/1/6 46/4/6 47/6/6
f 53/1/1 49/2/1 50/3/1 54/4/1
f 54/4/2 50/3/2 52/5/2 55/6/2
f 55/6/3 52/5/3 51/7/3 56/8/3
f 56/8/4 51/7/4 49/9/4 53/10/4
f 52/5/5 50/11/5 49/12/5 51/7/5
f 56/8/6 53/1/6 54/4/6 55/6/6
f 61/1/1 57/2/1 58/3/1 62/4/1
f 62/4/2 58/3/2 60/5/2 63/6/2
f 63/6/3 60/5/3 59/7/3 64/8/3
f 64/8/4 59/7/4 57/9/4 61/10/4
f 60/5/5 58/11/5 57/12/5 59/7/5
f 64/8/6 61/1/6 62/4/6 63/6/6
o Floor
v -10.000000 -0.100000 10.000000
v -10.000000 0.000000 10.000000
v -10.000000 -0.100000 -10.000000
v -10.000000 0.000000 -10.000000
v 10.000000 -0.100000 10.000000
v 10.000000 0.000000 10.000000
v 10.000000 -0.100000 -10.000000
v 10.000000 0.000000 -10.000000
vn -1.0000 -0.0000 -0.0000
vn -0.0000 -0.0000 -1.0000
vn 1.0000 -0.0000 -0.0000
vn -0.0000 -0.0000 1.0000
vn -0.0000 -1.0000 -0.0000
vn -0.0000 1.0000 -0.0000
vt 0.375000 0.000000
vt 0.625000 0.000000
vt 0.625000 0.250000
vt 0.375000 0.250000
vt 0.625000 0.500000
vt 0.375000 0.500000
vt 0.625000 0.750000
vt 0.375000 0.750000
vt 0.625000 1.000000
vt 0.375000 1.000000
vt 0.125000 0.500000
vt 0.125000 0.750000
vt 0.875000 0.500000
vt 0.875000 0.750000
s 0
f 65/13/7 66/14/7 68/15/7 67/16/7
f 67/16/8 68/15/8 72/17/8 71/18/8
f 71/18/9 72/17/9 70/19/9 69/20/9
f 69/20/10 70/19/10 66/21/10 65/22/10
f 67/23/11 71/18/11 69/20/11 65/24/11
f 72/17/12 68/25/12 66/26/12 70/19/12
