# Blender 5.0.0
# www.blender.org
mtllib Figures.mtl
o Cube
v 1.000000 1.000000 -1.000000
v 1.000000 -1.000000 -1.000000
v 1.000000 1.000000 1.000000
v 1.000000 -1.000000 1.000000
v -1.000000 1.000000 -1.000000
v -1.000000 -1.000000 -1.000000
v -1.000000 1.000000 1.000000
v -1.000000 -1.000000 1.000000
vn -0.0000 1.0000 -0.0000
vn -0.0000 -0.0000 1.0000
vn -1.0000 -0.0000 -0.0000
vn -0.0000 -1.0000 -0.0000
vn 1.0000 -0.0000 -0.0000
vn -0.0000 -0.0000 -1.0000
vt 0.666467 0.000200
vt 0.666467 0.333134
vt 0.333533 0.333134
vt 0.333533 0.000200
vt 0.000200 0.333533
vt 0.333134 0.333533
vt 0.333134 0.666467
vt 0.000200 0.666467
vt 0.666866 0.333133
vt 0.666866 0.000200
vt 0.999800 0.000200
vt 0.999800 0.333133
vt 0.000200 0.000200
vt 0.333134 0.000200
vt 0.333134 0.333134
vt 0.000200 0.333134
vt 0.333533 0.333533
vt 0.666467 0.333533
vt 0.666467 0.666467
vt 0.333533 0.666467
vt 0.666866 0.666467
vt 0.666866 0.333533
vt 0.999800 0.333533
vt 0.999800 0.666467
s 0
usemtl Material
f 1/1/1 5/2/1 7/3/1 3/4/1
f 4/5/2 3/6/2 7/7/2 8/8/2
f 8/9/3 7/10/3 5/11/3 6/12/3
f 6/13/4 2/14/4 4/15/4 8/16/4
f 2/17/5 1/18/5 3/19/5 4/20/5
f 6/21/6 5/22/6 1/23/6 2/24/6
o Cone
v -1.060660 -1.000000 -1.060660
v 1.060660 -1.000000 -1.060660
v 1.060660 -1.000000 1.060660
v -1.060660 -1.000000 1.060660
v 0.000000 1.000000 0.000000
vn -0.0000 0.4685 -0.8835
vn 0.8835 0.4685 -0.0000
vn -0.0000 -1.0000 -0.0000
vn -0.0000 0.4685 0.8835
vn -0.8835 0.4685 -0.0000
vt 0.984176 0.445766
vt 0.525281 0.232323
vt 0.982978 0.016323
vt 0.526153 0.251627
vt 0.984958 0.465265
vt 0.527169 0.681070
vt 0.009581 0.007450
vt 0.439025 0.007450
vt 0.439025 0.436894
vt 0.009581 0.436894
vt 0.440319 0.451084
vt 0.226854 0.909969
vt 0.010876 0.452262
vt 0.985480 0.912823
vt 0.526585 0.699381
vt 0.984281 0.483380
s 0
usemtl Material.001
f 9/25/7 13/26/7 10/27/7
f 10/28/8 13/29/8 11/30/8
f 9/31/9 10/32/9 11/33/9 12/34/9
f 11/35/10 13/36/10 12/37/10
f 12/38/11 13/39/11 9/40/11
